<svg xmlns="http://www.w3.org/2000/svg" width="48.89" height="48.89" viewBox="0 0 48.89 48.89">
  <path id="Path_208" data-name="Path 208" d="M19.959,0,17.637,2.322,14.793.68,13.151,3.524,9.98,2.674,9.13,5.846H5.846V9.13l-3.172.85.85,3.172L.681,14.794l1.642,2.844L0,19.96l2.322,2.322L.681,25.125l2.844,1.642-.85,3.172,3.172.85v3.284H9.13l.85,3.172,3.172-.85,1.642,2.844L17.638,37.6l2.322,2.322L22.282,37.6l2.844,1.642,1.642-2.844,3.172.85.85-3.172h3.284V30.788l3.172-.85-.85-3.172,2.844-1.642L37.6,22.281l2.322-2.322L37.6,17.637l1.642-2.844-2.844-1.642.85-3.172-3.172-.85V5.846H30.789l-.85-3.172-3.172.85L25.125.68,22.281,2.322Z" transform="matrix(0.966, -0.259, 0.259, 0.966, 0, 10.332)" fill="#fea834"/>
</svg>
